<svg width="20" height="20" viewBox="0 0 20 20" fill="none" xmlns="http://www.w3.org/2000/svg">
<path d="M15.6243 8.09131V7.50415C15.6243 4.2802 13.1062 1.66667 10 1.66667C6.8938 1.66667 4.37573 4.2802 4.37573 7.50415V8.09131C4.37573 8.79601 4.17477 9.48484 3.79817 10.0712L2.8753 11.5079C2.03235 12.8203 2.67588 14.6041 4.14197 15.0191C7.97728 16.1048 12.0227 16.1048 15.858 15.0191C17.3242 14.6041 17.9677 12.8203 17.1247 11.5079L16.2018 10.0712C15.8252 9.48484 15.6243 8.79601 15.6243 8.09131Z" stroke="white" stroke-width="1.5"/>
<path d="M6.25 15.8333C6.79586 17.2898 8.26872 18.3333 10 18.3333C11.7312 18.3333 13.2042 17.2898 13.75 15.8333" stroke="white" stroke-width="1.5" stroke-linecap="round"/>
</svg>
